<?xml version="1.0" encoding="UTF-8"?>
<!--Generator: Apple Native CoreSVG 326-->
<!DOCTYPE svg
PUBLIC "-//W3C//DTD SVG 1.1//EN"
       "http://www.w3.org/Graphics/SVG/1.1/DTD/svg11.dtd">
<svg version="1.1" xmlns="http://www.w3.org/2000/svg" xmlns:xlink="http://www.w3.org/1999/xlink" viewBox="0 0 70.5542 52.5366">
 <g>
  <rect height="52.5366" opacity="0" width="70.5542" x="0" y="0"/>
  <path d="M61.3257 21.5552C66.9067 23.7524 70.2026 28.8501 70.2026 34.6729C70.2026 42.2754 63.6768 48.3179 55.3052 48.3179L16.5894 48.2959C7.11914 48.2959 0 41.5503 0 33.3545C0 26.521 4.021 21.0059 10.3271 20.127C10.415 12.2607 17.9736 6.9873 24.8291 9.20654C28.0811 4.1748 33.4644 0 41.1768 0C52.5586 0 61.4795 9.07471 61.3257 21.5552ZM24.4116 22.478L20.896 27.5317C20.3687 28.3008 20.5664 29.2017 21.5552 29.2017L24.0161 29.2017C25.1147 35.5518 30.2124 39.9023 36.6504 39.9023C39.5508 39.9023 42.4951 38.8257 44.5386 37.0459C45.5054 36.2549 45.7251 35.2002 45.022 34.4531C44.3188 33.728 43.418 33.8379 42.561 34.4531C40.7373 35.9692 38.9136 36.6943 36.6504 36.6943C31.9482 36.6943 28.0811 33.5083 27.0703 29.2017L29.5312 29.2017C30.498 29.2017 30.7837 28.2788 30.2124 27.5317L26.6528 22.478C26.0596 21.665 25.0488 21.5991 24.4116 22.478ZM28.7183 17.4023C27.7734 18.2153 27.5317 19.248 28.2349 19.9951C28.938 20.6982 29.8608 20.6104 30.6738 19.9951C32.4976 18.457 34.3433 17.7319 36.6284 17.7319C41.3306 17.7319 45.1758 20.9399 46.1865 25.2466L43.6157 25.2466C42.6489 25.2466 42.3633 26.1694 42.9565 26.9165L46.4941 31.9702C47.0874 32.7832 48.0981 32.8491 48.7354 31.9702L52.251 26.9165C52.7783 26.1475 52.5806 25.2466 51.5918 25.2466L49.2407 25.2466C48.1421 18.8965 43.0444 14.5459 36.6284 14.5459C33.7061 14.5459 30.7397 15.6226 28.7183 17.4023Z" fill="white" fill-opacity="0.85"/>
 </g>
</svg>
