<?xml version="1.0" encoding="UTF-8"?>
<!--Generator: Apple Native CoreSVG 326-->
<!DOCTYPE svg
PUBLIC "-//W3C//DTD SVG 1.1//EN"
       "http://www.w3.org/Graphics/SVG/1.1/DTD/svg11.dtd">
<svg version="1.1" xmlns="http://www.w3.org/2000/svg" xmlns:xlink="http://www.w3.org/1999/xlink" viewBox="0 0 38.7524 30.1758">
 <g>
  <rect height="30.1758" opacity="0" width="38.7524" x="0" y="0"/>
  <path d="M33.6255 11.6382C36.5991 12.8687 38.3862 15.7764 38.3862 18.9697C38.3862 23.3936 34.5703 26.9238 29.7803 26.9238L9.41895 26.9238C4.10889 26.9238 0 23.042 0 18.3325C0 14.5386 2.09473 11.4258 5.50781 10.7227C5.75684 6.55518 9.63135 3.74268 13.5132 4.63623C15.4907 1.83105 18.5596 0 22.3535 0C28.7183 0 33.6255 4.87061 33.6255 11.6382ZM13.5425 12.3779L11.5796 15.0293C11.1694 15.5859 11.3965 16.2598 12.0776 16.2598L13.103 16.2598C13.7183 19.3872 16.377 21.6211 19.6875 21.6211C21.1304 21.6211 22.4121 21.2036 23.3569 20.4785C24.0747 19.9731 24.2065 19.2554 23.811 18.7134C23.4155 18.1714 22.7637 17.9956 22.0679 18.4497C21.3281 18.9844 20.5811 19.2407 19.6875 19.2407C17.7173 19.2407 16.0767 18.0029 15.52 16.2598L16.4795 16.2598C17.1533 16.2598 17.3877 15.5713 16.9629 15.0293L14.9927 12.3779C14.6045 11.8799 13.9307 11.8652 13.5425 12.3779ZM16.0181 9.48486C15.3076 9.99023 15.1758 10.7007 15.564 11.2427C15.9521 11.7847 16.6187 11.9604 17.3071 11.499C18.0469 10.9644 18.7939 10.7153 19.6802 10.7153C21.6724 10.7153 23.2983 11.9604 23.8477 13.7036L22.8589 13.7036C22.1851 13.7036 21.9507 14.3774 22.3755 14.9268L24.3457 17.5781C24.7339 18.0688 25.4004 18.0835 25.7959 17.5781L27.7515 14.9268C28.1616 14.3701 27.9346 13.7036 27.2534 13.7036L26.272 13.7036C25.6641 10.5615 22.998 8.32764 19.6802 8.32764C18.2446 8.32764 16.9556 8.75977 16.0181 9.48486Z" fill="white" fill-opacity="0.85"/>
 </g>
</svg>
