<?xml version="1.0" encoding="UTF-8"?>
<!--Generator: Apple Native CoreSVG 326-->
<!DOCTYPE svg
PUBLIC "-//W3C//DTD SVG 1.1//EN"
       "http://www.w3.org/Graphics/SVG/1.1/DTD/svg11.dtd">
<svg version="1.1" xmlns="http://www.w3.org/2000/svg" xmlns:xlink="http://www.w3.org/1999/xlink" viewBox="0 0 59.3921 57.9419">
 <g>
  <rect height="57.9419" opacity="0" width="59.3921" x="0" y="0"/>
  <path d="M50.0977 27.2461C52.251 28.7402 54.0308 30.0586 57.1729 30.0586L57.3047 30.0586C58.2715 30.0586 59.0405 30.8276 59.0405 31.7944C59.0405 32.7393 58.2715 33.5083 57.3047 33.5083L57.1729 33.5083C48.5596 33.5083 47.8125 27.7515 42.9785 27.7515C41.6138 27.7515 40.5425 28.2319 39.5293 28.922L37.4551 26.1404C38.9568 25.1517 40.7359 24.3018 42.9785 24.3018C46.0327 24.3018 48.252 25.9058 50.0977 27.2461ZM21.5713 26.1337L19.4994 28.9145C18.4901 28.2283 17.4216 27.7515 16.062 27.7515C11.228 27.7515 10.459 33.5083 1.86768 33.5083L1.71387 33.5083C0.769043 33.5083 0 32.7393 0 31.7944C0 30.8276 0.769043 30.0586 1.71387 30.0586L1.86768 30.0586C5.00977 30.0586 6.78955 28.7402 8.9209 27.2461C10.7666 25.9058 12.9858 24.3018 16.062 24.3018C18.284 24.3018 20.0665 25.1479 21.5713 26.1337Z" fill="white" fill-opacity="0.85"/>
  <path d="M50.0977 10.2832C52.251 11.7993 54.0308 13.1177 57.1729 13.1177L57.3047 13.1177C58.2715 13.1177 59.0405 13.8867 59.0405 14.8315C59.0405 15.7983 58.2715 16.5674 57.3047 16.5674L57.1729 16.5674C48.5596 16.5674 47.8125 10.8105 42.9785 10.8105C38.2544 10.8105 37.0459 16.5674 29.5093 16.5674C21.9946 16.5674 20.7861 10.8105 16.062 10.8105C11.228 10.8105 10.459 16.5674 1.86768 16.5674L1.71387 16.5674C0.769043 16.5674 0 15.7983 0 14.8315C0 13.8867 0.769043 13.1177 1.71387 13.1177L1.86768 13.1177C5.00977 13.1177 6.78955 11.7993 8.9209 10.2832C10.7666 8.94287 12.9858 7.36084 16.062 7.36084C19.2041 7.36084 21.4673 9.05273 23.313 10.415C25.2686 11.9092 26.8726 13.1177 29.5093 13.1177C32.146 13.1177 33.772 11.9092 35.7275 10.415C37.5732 9.05273 39.8145 7.36084 42.9785 7.36084C46.0327 7.36084 48.252 8.94287 50.0977 10.2832Z" fill="white" fill-opacity="0.85"/>
  <path d="M22.0825 35.2002L27.5757 35.2002L27.5757 52.998C27.5757 54.0308 28.4766 54.8877 29.5093 54.8877C30.542 54.8877 31.4429 54.0308 31.4429 52.998L31.4429 35.2002L36.936 35.2002C38.584 35.2002 39.2651 33.6401 38.2983 32.4097L31.0254 22.6758C30.1025 21.4893 28.938 21.4673 27.9932 22.6758L20.7202 32.3877C19.7314 33.6401 20.4126 35.2002 22.0825 35.2002Z" fill="white" fill-opacity="0.85"/>
 </g>
</svg>
