<?xml version="1.0" encoding="UTF-8"?>
<!--Generator: Apple Native CoreSVG 326-->
<!DOCTYPE svg
PUBLIC "-//W3C//DTD SVG 1.1//EN"
       "http://www.w3.org/Graphics/SVG/1.1/DTD/svg11.dtd">
<svg version="1.1" xmlns="http://www.w3.org/2000/svg" xmlns:xlink="http://www.w3.org/1999/xlink" viewBox="0 0 32.6001 31.7725">
 <g>
  <rect height="31.7725" opacity="0" width="32.6001" x="0" y="0"/>
  <path d="M27.29 14.5093C28.5132 15.3955 29.3408 15.8936 30.6299 15.8936L30.7397 15.8936C31.5674 15.8936 32.2339 16.5601 32.2339 17.3804C32.2339 18.208 31.5674 18.8672 30.7397 18.8672L30.6299 18.8672C25.752 18.8672 25.4004 15.835 23.2031 15.835C22.736 15.835 22.3433 15.9757 21.9714 16.1971L20.1082 13.8371C20.9353 13.3184 21.9489 12.8613 23.2031 12.8613C25.0049 12.8613 26.3159 13.8062 27.29 14.5093ZM12.08 13.8073L10.2211 16.1721C9.86189 15.9649 9.481 15.835 9.03076 15.835C6.84082 15.835 6.47461 18.8672 1.604 18.8672L1.49414 18.8672C0.65918 18.8672 0 18.208 0 17.3804C0 16.5601 0.65918 15.8936 1.49414 15.8936L1.604 15.8936C2.88574 15.8936 3.7207 15.3955 4.95117 14.5093C5.91797 13.8062 7.23633 12.8613 9.03076 12.8613C10.2607 12.8613 11.2626 13.3008 12.08 13.8073Z" fill="white" fill-opacity="0.85"/>
  <path d="M27.29 5.68359C28.5132 6.5625 29.3408 7.06787 30.6299 7.06787L30.7397 7.06787C31.5674 7.06787 32.2339 7.72705 32.2339 8.54736C32.2339 9.375 31.5674 10.0488 30.7397 10.0488L30.6299 10.0488C25.752 10.0488 25.4004 7.00928 23.2031 7.00928C21.0352 7.00928 20.4712 10.0488 16.1206 10.0488C11.7627 10.0488 11.2061 7.00928 9.03076 7.00928C6.84082 7.00928 6.47461 10.0488 1.604 10.0488L1.49414 10.0488C0.65918 10.0488 0 9.375 0 8.54736C0 7.72705 0.65918 7.06787 1.49414 7.06787L1.604 7.06787C2.88574 7.06787 3.7207 6.5625 4.95117 5.68359C5.91797 4.98047 7.23633 4.03564 9.03076 4.03564C10.8618 4.03564 12.1875 5.00244 13.1543 5.72754C14.1943 6.49658 14.9268 7.06787 16.1206 7.06787C17.2998 7.06787 18.0469 6.49658 19.0796 5.72754C20.0537 5.00244 21.3721 4.03564 23.2031 4.03564C25.0049 4.03564 26.3159 4.98047 27.29 5.68359Z" fill="white" fill-opacity="0.85"/>
  <path d="M11.7847 20.647L14.4214 20.647L14.4214 28.0591C14.4214 28.9526 15.1685 29.729 16.1133 29.729C17.0581 29.729 17.8052 28.9526 17.8052 28.0591L17.8052 20.647L20.376 20.647C21.4966 20.647 22.0166 19.5557 21.2769 18.6255L17.168 13.4033C16.5234 12.5977 15.6445 12.605 15.0073 13.4033L10.8911 18.6182C10.1514 19.5483 10.6494 20.647 11.7847 20.647Z" fill="white" fill-opacity="0.85"/>
 </g>
</svg>
